<?xml version="1.0" encoding="UTF-8"?>
<svg version="1.1" xmlns="http://www.w3.org/2000/svg" width="500" height="500">
<path d="M0 0 C165 0 330 0 500 0 C500 165 500 330 500 500 C335 500 170 500 0 500 C0 335 0 170 0 0 Z " fill="#FEFEFE" transform="translate(0,0)"/>
<path d="M0 0 C12.64463727 9.9777005 20.68415705 22.405533 27 37 C27.45761719 38.03898437 27.91523438 39.07796875 28.38671875 40.1484375 C35.21130773 59.16150294 32.56726673 83.27584575 24.21289062 101.33081055 C20.87742385 108.18360644 17.03766985 114.25705637 12 120 C11.41992188 120.73347656 10.83984375 121.46695313 10.2421875 122.22265625 C0.54375605 134.05149628 -15.07720278 143.57016354 -30 147 C-31.32 147 -32.64 147 -34 147 C-34 147.66 -34 148.32 -34 149 C-32.9275 149.061875 -31.855 149.12375 -30.75 149.1875 C-12.95747488 151.45086009 4.35192758 165.25471756 15 179 C19.92543462 185.91000432 23.907917 193.09919481 27 201 C27.39445313 201.96550781 27.78890625 202.93101562 28.1953125 203.92578125 C33.55825909 219.28331013 32.88453483 238.57515316 28 254 C27.67128906 255.06734375 27.34257812 256.1346875 27.00390625 257.234375 C19.74919126 278.22033255 3.99193854 295.58940623 -15.86303711 305.31713867 C-37.00873765 315.15766487 -59.79887202 315.58568339 -81.625 307.75 C-103.95422018 298.62885188 -119.68364076 282.95669151 -129.19091797 261.02734375 C-132.63184156 252.4053071 -134.62766458 243.27600848 -135 234 C-135.03996094 233.31292969 -135.07992187 232.62585938 -135.12109375 231.91796875 C-135.80453158 210.2489694 -128.38480107 190.08791959 -114 174 C-113.26136719 173.16726563 -112.52273437 172.33453125 -111.76171875 171.4765625 C-102.22964038 161.3360536 -86.54386115 149.59948147 -72.06640625 148.84765625 C-71.38449219 148.89792969 -70.70257813 148.94820312 -70 149 C-70 148.34 -70 147.68 -70 147 C-71.49660156 146.8453125 -71.49660156 146.8453125 -73.0234375 146.6875 C-77.14966758 146.09063699 -80.83134525 144.68856204 -84.625 143 C-85.31940186 142.69094727 -86.01380371 142.38189453 -86.72924805 142.06347656 C-106.98644941 132.7100771 -121.99655411 116.56280297 -130.0078125 95.81640625 C-137.39423251 74.84944237 -137.69490288 52.18516631 -128.31445312 31.80810547 C-117.33830404 9.26206825 -99.9096312 -5.45455535 -76.69140625 -14.25390625 C-50.87041894 -22.51547075 -21.26953052 -16.26669729 0 0 Z " fill="#3889F7" transform="translate(299,184)"/>
<path d="M0 0 C16.69805463 14.37147518 28.31497609 33.51645555 30.25 55.6875 C31.53123254 78.25333036 27.52321893 100.09855622 12.171875 117.58203125 C11.53765625 118.27683594 10.9034375 118.97164062 10.25 119.6875 C9.47011719 120.66203125 8.69023437 121.6365625 7.88671875 122.640625 C-3.89339475 136.81113289 -23.76328137 145.74544259 -41.75 147.6875 C-66.25129982 148.98474687 -87.80098325 145.22482371 -106.75 128.6875 C-107.72259766 127.945 -107.72259766 127.945 -108.71484375 127.1875 C-122.94236907 115.91817301 -132.89082946 96.4120726 -135.75 78.6875 C-137.76049848 52.66247134 -132.7481892 29.97566131 -115.75 9.6875 C-85.95663558 -23.89086535 -35.18724779 -27.78714415 0 0 Z " fill="#FF0000" transform="translate(466.75,18.3125)"/>
<path d="M0 0 C17.24884767 12.93071726 29.18409719 31.1518699 33.44677734 52.37646484 C36.33596898 73.23976215 33.99466148 95.95209337 21.76953125 113.66650391 C17.361371 119.45061297 12.30513214 124.58592453 7.13427734 129.68896484 C6.55806641 130.26259766 5.98185547 130.83623047 5.38818359 131.42724609 C-10.04639657 145.7924558 -31.34909632 152.30605803 -52.15869141 151.93896484 C-74.74382545 150.41583673 -95.68333734 140.97551576 -111.15087891 124.21240234 C-113.16506381 121.76743801 -115.0370886 119.27523253 -116.86572266 116.68896484 C-117.47029297 115.84849609 -118.07486328 115.00802734 -118.69775391 114.14208984 C-131.45878096 95.34807179 -134.76146874 73.28428596 -131.24853516 50.99755859 C-126.9223853 29.61901795 -113.1484477 11.09443498 -95.77197266 -1.56494141 C-67.11938802 -20.25295143 -27.99583904 -19.67255374 0 0 Z " fill="#EFD56F" transform="translate(462.86572265625,348.31103515625)"/>
<path d="M0 0 C3.63901143 3.08558772 7.04859643 6.3694274 10.42382812 9.73974609 C11.09285156 10.39716797 11.761875 11.05458984 12.45117188 11.73193359 C28.03628132 28.20055264 33.05989567 50.22918645 32.60351562 72.22802734 C31.86929289 94.0779521 21.61335918 112.52807287 6.42382812 127.73974609 C5.76640625 128.40876953 5.10898437 129.07779297 4.43164062 129.76708984 C-10.44696036 143.84748262 -30.88566867 149.91426556 -50.88867188 149.92724609 C-51.87029297 149.93949219 -52.85191406 149.95173828 -53.86328125 149.96435547 C-76.15299458 150.00861036 -95.39400937 139.62930364 -111.20117188 124.48974609 C-116.24333406 119.34195201 -120.06561213 114.01256206 -123.57617188 107.73974609 C-124.02476562 106.99853516 -124.47335937 106.25732422 -124.93554688 105.49365234 C-134.89272641 87.7612678 -136.76810718 64.23900311 -131.57617188 44.73974609 C-127.72282854 31.75323804 -121.6542228 20.77570824 -112.57617188 10.73974609 C-111.80273438 9.87220703 -111.02929688 9.00466797 -110.23242188 8.11083984 C-82.60999843 -21.26040586 -31.79113079 -25.41911666 0 0 Z " fill="#7ED957" transform="translate(464.576171875,183.26025390625)"/>
<path d="M0 0 C1.20333984 -0.020625 2.40667969 -0.04125 3.64648438 -0.0625 C25.46664295 -0.15680647 43.93399251 9.12822886 59.3125 24.25 C60.01246094 24.93707031 60.71242187 25.62414062 61.43359375 26.33203125 C76.19136571 41.83776046 82.75166432 62.77834609 82.67895508 83.8515625 C82.10549205 106.95328263 71.20964239 127.3592645 54.68359375 143.2265625 C37.83667869 157.6033368 16.26466219 164.52763907 -5.6875 163.25 C-28.93082685 160.76262459 -48.81046153 150.5495929 -63.96875 132.53125 C-78.42303875 113.34646675 -84.34348344 91.79297679 -81.41064453 68.00439453 C-77.94359745 46.91196203 -64.8371284 26.81402775 -47.8203125 14.109375 C-45.15793942 12.37468433 -42.47311972 10.77799435 -39.6875 9.25 C-38.8315625 8.77949219 -37.975625 8.30898438 -37.09375 7.82421875 C-24.74896343 1.36606652 -13.79727339 0.05818565 0 0 Z " fill="#EF6F6F" transform="translate(81.6875,333.75)"/>
<path d="M0 0 C-2 2 -2 2 -4.24658203 2.13525391 C-5.15778809 2.08288574 -6.06899414 2.03051758 -7.0078125 1.9765625 C-7.99394531 1.925 -8.98007812 1.8734375 -9.99609375 1.8203125 C-11.54490234 1.72363281 -11.54490234 1.72363281 -13.125 1.625 C-14.68541016 1.53992188 -14.68541016 1.53992188 -16.27734375 1.453125 C-18.85223418 1.31138791 -21.4261874 1.15995446 -24 1 C-24 0.67 -24 0.34 -24 0 C-20.75052139 -0.19738568 -17.50041127 -0.3811754 -14.25 -0.5625 C-13.32960938 -0.61857422 -12.40921875 -0.67464844 -11.4609375 -0.73242188 C-10.57148438 -0.78076172 -9.68203125 -0.82910156 -8.765625 -0.87890625 C-7.94868164 -0.9260376 -7.13173828 -0.97316895 -6.29003906 -1.02172852 C-4.02117925 -1.00020095 -2.16679079 -0.64612135 0 0 Z " fill="#F6C8C0" transform="translate(429,166)"/>
</svg>
